<svg id="Capa_1" enable-background="new 0 0 512 512" height="512" viewBox="0 0 512 512" width="512" xmlns="http://www.w3.org/2000/svg"><g><g><path d="m502 256c0 135.96-110.02 246-246 246-135.96 0-246-110.02-246-246 0-135.96 110.02-246 246-246 135.96 0 246 110.02 246 246z" fill="#ffed99"/><g fill="#fff5f5"><path d="m356 156c22.09 0 40 22.39 40 50s-17.91 50-40 50-40-22.39-40-50 17.91-50 40-50z"/><ellipse cx="256" cy="356" rx="120" ry="60"/><path d="m156 156c22.09 0 40 22.39 40 50s-17.91 50-40 50-40-22.39-40-50 17.91-50 40-50z"/></g></g><g><circle cx="356" cy="216" r="10"/><circle cx="156" cy="216" r="10"/><path d="m106 206c0 33.084 22.43 60 50 60s50-26.916 50-60-22.43-60-50-60-50 26.916-50 60zm50-40c16.542 0 30 17.944 30 40s-13.458 40-30 40-30-17.944-30-40 13.458-40 30-40z"/><path d="m306 206c0 33.084 22.43 60 50 60s50-26.916 50-60-22.43-60-50-60-50 26.916-50 60zm80 0c0 22.056-13.458 40-30 40s-30-17.944-30-40 13.458-40 30-40 30 17.944 30 40z"/><path d="m126 356c0 51.212 78.981 70 130 70 51.02 0 130-18.789 130-70 0-51.212-78.981-70-130-70-67.575 0-130 27.604-130 70zm180-10h-40v-39.776c13.939.605 27.512 2.469 40 5.5zm0 54.277c-12.486 3.03-26.06 4.894-40 5.499v-39.776h40zm-100-34.277h40v39.776c-13.939-.605-27.512-2.469-40-5.5zm0-54.277c12.486-3.03 26.06-4.894 40-5.499v39.776h-40zm-20 6.229v28.048h-37.496c5.277-10.649 18.656-20.705 37.496-28.048zm-37.496 48.048h37.496v28.049c-18.84-7.343-32.219-17.4-37.496-28.049zm177.496 28.048v-28.058h37.496c-5.277 10.659-18.656 20.715-37.496 28.058zm37.496-48.048h-37.496v-28.049c18.84 7.343 32.219 17.4 37.496 28.049z"/><path d="m371.528 87.056-80 40c-4.94 2.47-6.942 8.477-4.472 13.417 2.467 4.933 8.469 6.946 13.417 4.472l80-40c4.94-2.47 6.942-8.477 4.472-13.417-2.47-4.939-8.476-6.941-13.417-4.472z"/><path d="m220.472 127.056-80-40c-4.939-2.47-10.947-.468-13.417 4.472s-.468 10.947 4.472 13.417l80 40c4.951 2.476 10.952.457 13.417-4.472 2.47-4.941.468-10.948-4.472-13.417z"/><circle cx="82" cy="430" r="10"/><path d="m256 0c-141.582 0-256 114.384-256 256 0 52.164 15.56 102.336 44.997 145.091 3.133 4.549 9.36 5.698 13.908 2.566 4.549-3.132 5.698-9.359 2.566-13.908-27.131-39.404-41.471-85.654-41.471-133.749 0-130.131 105.869-236 236-236s236 105.869 236 236-105.869 236-236 236c-48.094 0-94.344-14.34-133.749-41.47-4.549-3.133-10.776-1.984-13.908 2.565s-1.983 10.775 2.566 13.908c42.757 29.437 92.928 44.997 145.091 44.997 141.582 0 256-114.384 256-256 0-141.582-114.384-256-256-256z"/></g></g></svg>